2014030_C4_03_grf
version=1
nRows=37
nColumns=19
inDegrees=no
endheader
time	ground_force_1_vx	ground_force_1_vy	ground_force_1_vz	ground_force_1_px	ground_force_1_py	ground_force_1_pz	ground_force_1_mx	ground_force_1_my	ground_force_1_mz	ground_force_2_vx	ground_force_2_vy	ground_force_2_vz	ground_force_2_px	ground_force_2_py	ground_force_2_pz	ground_force_2_mx	ground_force_2_my	ground_force_2_mz
      0.43500000	    -15.49898973	    524.06056970	    -22.79170230	      0.33871071	     -0.00200000	     -0.18425714	      0.00000000	      1.83446371	      0.00000000	      0.00000000	      0.00000000	      0.00000000	      0.00000000	      0.00000000	      0.00000000	      0.00000000	      0.00000000	      0.00000000
      0.43600000	    -15.43531325	    524.70013499	    -22.80655690	      0.33918199	     -0.00200000	     -0.18425491	      0.00000000	      1.84094708	      0.00000000	      0.00000000	      0.00000000	      0.00000000	      0.00000000	      0.00000000	      0.00000000	      0.00000000	      0.00000000	      0.00000000
      0.43700000	    -15.37146829	    525.34973994	    -22.82174304	      0.33965044	     -0.00200000	     -0.18425207	      0.00000000	      1.84727181	      0.00000000	      0.00000000	      0.00000000	      0.00000000	      0.00000000	      0.00000000	      0.00000000	      0.00000000	      0.00000000	      0.00000000
      0.43800000	    -15.30737523	    526.00748092	    -22.83713408	      0.34011649	     -0.00200000	     -0.18424868	      0.00000000	      1.85347571	      0.00000000	      0.00000000	      0.00000000	      0.00000000	      0.00000000	      0.00000000	      0.00000000	      0.00000000	      0.00000000	      0.00000000
      0.43900000	    -15.24282033	    526.67554840	    -22.85270859	      0.34057938	     -0.00200000	     -0.18424454	      0.00000000	      1.85953768	      0.00000000	      0.00000000	      0.00000000	      0.00000000	      0.00000000	      0.00000000	      0.00000000	      0.00000000	      0.00000000	      0.00000000
      0.44000000	    -15.17776418	    527.35206485	    -22.86836877	      0.34103956	     -0.00200000	     -0.18423973	      0.00000000	      1.86549199	      0.00000000	      0.00000000	      0.00000000	      0.00000000	      0.00000000	      0.00000000	      0.00000000	      0.00000000	      0.00000000	      0.00000000
      0.44100000	    -15.11191092	    528.03927287	    -22.88406342	      0.34149618	     -0.00200000	     -0.18423405	      0.00000000	      1.87131692	      0.00000000	      0.00000000	      0.00000000	      0.00000000	      0.00000000	      0.00000000	      0.00000000	      0.00000000	      0.00000000	      0.00000000
      0.44200000	    -15.04527982	    528.73508632	    -22.89973386	      0.34194980	     -0.00200000	     -0.18422768	      0.00000000	      1.87704121	     -0.00000000	      0.00000000	      0.00000000	      0.00000000	      0.00000000	      0.00000000	      0.00000000	      0.00000000	      0.00000000	      0.00000000
      0.44300000	    -14.97749956	    529.44179997	    -22.91531302	      0.34239948	     -0.00200000	     -0.18422048	      0.00000000	      1.88264308	      0.00000000	      0.00000000	      0.00000000	      0.00000000	      0.00000000	      0.00000000	      0.00000000	      0.00000000	      0.00000000	      0.00000000
      0.44400000	    -14.90865313	    530.15722334	    -22.93077670	      0.34284588	     -0.00200000	     -0.18421264	      0.00000000	      1.88814690	      0.00000000	      0.00000000	      0.00000000	      0.00000000	      0.00000000	      0.00000000	      0.00000000	      0.00000000	      0.00000000	      0.00000000
      0.44500000	    -14.83829124	    530.88362515	    -22.94604667	      0.34328799	     -0.00200000	     -0.18420408	      0.00000000	      1.89352914	      0.00000000	      0.00000000	      0.00000000	      0.00000000	      0.00000000	      0.00000000	      0.00000000	      0.00000000	      0.00000000	      0.00000000
      0.44600000	    -14.76656646	    531.61884099	    -22.96112478	      0.34372655	     -0.00200000	     -0.18419500	      0.00000000	      1.89881275	      0.00000000	      0.00000000	      0.00000000	      0.00000000	      0.00000000	      0.00000000	      0.00000000	      0.00000000	      0.00000000	      0.00000000
      0.44700000	    -14.69294317	    532.36508742	    -22.97591604	      0.34416049	     -0.00200000	     -0.18418537	      0.00000000	      1.90397084	      0.00000000	      0.00000000	      0.00000000	      0.00000000	      0.00000000	      0.00000000	      0.00000000	      0.00000000	      0.00000000	      0.00000000
      0.44800000	    -14.61764853	    533.12009573	    -22.99043536	      0.34459062	     -0.00200000	     -0.18417538	      0.00000000	      1.90902643	      0.00000000	      0.00000000	      0.00000000	      0.00000000	      0.00000000	      0.00000000	      0.00000000	      0.00000000	      0.00000000	      0.00000000
      0.44900000	    -14.54006648	    533.88605639	    -23.00456632	      0.34501583	     -0.00200000	     -0.18416506	      0.00000000	      1.91395125	      0.00000000	      0.00000000	      0.00000000	      0.00000000	      0.00000000	      0.00000000	      0.00000000	      0.00000000	      0.00000000	      0.00000000
      0.45000000	    -14.46049623	    534.66067463	    -23.01834896	      0.34543700	     -0.00200000	     -0.18415459	      0.00000000	      1.91876856	      0.00000000	      0.00000000	      0.00000000	      0.00000000	      0.00000000	      0.00000000	      0.00000000	      0.00000000	      0.00000000	      0.00000000
      0.45100000	    -14.37823540	    535.44598445	    -23.03166036	      0.34585299	     -0.00200000	     -0.18414406	      0.00000000	      1.92344689	      0.00000000	      0.00000000	      0.00000000	      0.00000000	      0.00000000	      0.00000000	      0.00000000	      0.00000000	      0.00000000	      0.00000000
      0.45200000	    -14.29365780	    536.23974323	    -23.04456756	      0.34626472	     -0.00200000	     -0.18413355	      0.00000000	      1.92801122	      0.00000000	      0.00000000	      0.00000000	      0.00000000	      0.00000000	      0.00000000	      0.00000000	      0.00000000	      0.00000000	      0.00000000
      0.45300000	    -14.20597807	    537.04385459	    -23.05694483	      0.34667101	     -0.00200000	     -0.18412314	      0.00000000	      1.93242797	      0.00000000	      0.00000000	      0.00000000	      0.00000000	      0.00000000	      0.00000000	      0.00000000	      0.00000000	      0.00000000	      0.00000000
      0.45400000	    -14.11565132	    537.85625845	    -23.06888625	      0.34707282	     -0.00200000	     -0.18411284	     -0.00000000	      1.93672225	      0.00000000	      0.00000000	      0.00000000	      0.00000000	      0.00000000	      0.00000000	      0.00000000	      0.00000000	      0.00000000	      0.00000000
      0.45500000	    -14.02180670	    538.67891058	    -23.08027260	      0.34746888	     -0.00200000	     -0.18410273	      0.00000000	      1.94085829	      0.00000000	      0.00000000	      0.00000000	      0.00000000	      0.00000000	      0.00000000	      0.00000000	      0.00000000	      0.00000000	      0.00000000
      0.45600000	    -13.92498314	    539.50969875	    -23.09121192	      0.34786024	     -0.00200000	     -0.18409283	     -0.00000000	      1.94486215	      0.00000000	      0.00000000	      0.00000000	      0.00000000	      0.00000000	      0.00000000	      0.00000000	      0.00000000	      0.00000000	      0.00000000
      0.45700000	    -13.82424063	    540.35060480	    -23.10159337	      0.34824557	     -0.00200000	     -0.18408327	     -0.00000000	      1.94869141	      0.00000000	      0.00000000	      0.00000000	      0.00000000	      0.00000000	      0.00000000	      0.00000000	      0.00000000	      0.00000000	      0.00000000
      0.45800000	    -13.72020990	    541.19959474	    -23.11153524	      0.34862594	     -0.00200000	     -0.18407402	      0.00000000	      1.95237092	      0.00000000	      0.00000000	      0.00000000	      0.00000000	      0.00000000	      0.00000000	      0.00000000	      0.00000000	      0.00000000	      0.00000000
      0.45900000	    -13.61188721	    542.05854610	    -23.12095184	      0.34899999	     -0.00200000	     -0.18406521	      0.00000000	      1.95584732	      0.00000000	      0.00000000	      0.00000000	      0.00000000	      0.00000000	      0.00000000	      0.00000000	      0.00000000	      0.00000000	      0.00000000
      0.46000000	    -13.49999467	    542.92537272	    -23.12996984	      0.34936886	     -0.00200000	     -0.18405678	      0.00000000	      1.95914873	      0.00000000	      0.00000000	      0.00000000	      0.00000000	      0.00000000	      0.00000000	      0.00000000	      0.00000000	      0.00000000	      0.00000000
      0.46100000	    -13.38347322	    543.80184785	    -23.13852776	      0.34973117	     -0.00200000	     -0.18404885	      0.00000000	      1.96221562	      0.00000000	      0.00000000	      0.00000000	      0.00000000	      0.00000000	      0.00000000	      0.00000000	      0.00000000	      0.00000000	      0.00000000
      0.46200000	    -13.26312292	    544.68588531	    -23.14675227	      0.35008816	     -0.00200000	     -0.18404138	      0.00000000	      1.96508278	     -0.00000000	      0.00000000	      0.00000000	      0.00000000	      0.00000000	      0.00000000	      0.00000000	      0.00000000	      0.00000000	      0.00000000
      0.46300000	    -13.13783904	    545.57904974	    -23.15460797	      0.35043845	     -0.00200000	     -0.18403453	      0.00000000	      1.96768813	     -0.00000000	      0.00000000	      0.00000000	      0.00000000	      0.00000000	      0.00000000	      0.00000000	      0.00000000	      0.00000000	      0.00000000
      0.46400000	    -13.00849328	    546.47930712	    -23.16220477	      0.35078333	     -0.00200000	     -0.18402824	      0.00000000	      1.97007505	      0.00000000	      0.00000000	      0.00000000	      0.00000000	      0.00000000	      0.00000000	      0.00000000	      0.00000000	      0.00000000	      0.00000000
      0.46500000	    -12.87392685	    547.38806561	    -23.16953056	      0.35112142	     -0.00200000	     -0.18402269	      0.00000000	      1.97217825	      0.00000000	      0.00000000	      0.00000000	      0.00000000	      0.00000000	      0.00000000	      0.00000000	      0.00000000	      0.00000000	      0.00000000
      0.46600000	    -12.73506973	    548.30339551	    -23.17668311	      0.35145403	     -0.00200000	     -0.18401777	      0.00000000	      1.97404561	      0.00000000	      0.00000000	      0.00000000	      0.00000000	      0.00000000	      0.00000000	      0.00000000	      0.00000000	      0.00000000	      0.00000000
      0.46700000	    -12.59071031	    549.22657460	    -23.18368573	      0.35177975	     -0.00200000	     -0.18401366	      0.00000000	      1.97560740	      0.00000000	      0.00000000	      0.00000000	      0.00000000	      0.00000000	      0.00000000	      0.00000000	      0.00000000	      0.00000000	      0.00000000
      0.46800000	    -12.44184058	    550.15564710	    -23.19062315	      0.35209995	     -0.00200000	     -0.18401021	      0.00000000	      1.97691597	      0.00000000	      0.00000000	      0.00000000	      0.00000000	      0.00000000	      0.00000000	      0.00000000	      0.00000000	      0.00000000	      0.00000000
      0.46900000	    -12.28719950	    551.09165609	    -23.19755498	      0.35241325	     -0.00200000	     -0.18400755	      0.00000000	      1.97789731	     -0.00000000	      0.00000000	      0.00000000	      0.00000000	      0.00000000	      0.00000000	      0.00000000	      0.00000000	      0.00000000	      0.00000000
      0.47000000	    -12.12783186	    552.03282833	    -23.20454456	      0.35272099	     -0.00200000	     -0.18400552	      0.00000000	      1.97860906	      0.00000000	      0.00000000	      0.00000000	      0.00000000	      0.00000000	      0.00000000	      0.00000000	      0.00000000	      0.00000000	      0.00000000
      0.47100000	    -11.96241667	    552.98005044	    -23.21169432	      0.35302181	     -0.00200000	     -0.18400424	      0.00000000	      1.97897258	      0.00000000	      0.00000000	      0.00000000	      0.00000000	      0.00000000	      0.00000000	      0.00000000	      0.00000000	      0.00000000	      0.00000000
